G04 MADE WITH FRITZING*
G04 WWW.FRITZING.ORG*
G04 DOUBLE SIDED*
G04 HOLES PLATED*
G04 CONTOUR ON CENTER OF CONTOUR VECTOR*
%ASAXBY*%
%FSLAX23Y23*%
%MOIN*%
%OFA0B0*%
%SFA1.0B1.0*%
%ADD10C,0.075000*%
%ADD11C,0.170000*%
%ADD12C,0.080000*%
%ADD13C,0.062992*%
%ADD14C,0.065000*%
%ADD15R,0.062992X0.062992*%
%ADD16R,0.001000X0.001000*%
%LNCOPPER0*%
G90*
G70*
G54D10*
X1383Y1471D03*
G54D11*
X436Y330D03*
X199Y330D03*
X317Y145D03*
G54D12*
X1262Y1408D03*
X1262Y1264D03*
X1262Y1119D03*
X1246Y565D03*
X1246Y421D03*
X1246Y276D03*
G54D13*
X294Y1103D03*
X196Y1103D03*
G54D10*
X460Y1081D03*
X460Y681D03*
G54D14*
X713Y1413D03*
X713Y1213D03*
G54D15*
X294Y1103D03*
G36*
X40Y1535D02*
X40Y1459D01*
X1312Y1459D01*
X1312Y1359D01*
X1534Y1359D01*
X1534Y1535D01*
X40Y1535D01*
G37*
D02*
G36*
X40Y1459D02*
X40Y1455D01*
X724Y1455D01*
X724Y1453D01*
X730Y1453D01*
X730Y1451D01*
X734Y1451D01*
X734Y1449D01*
X736Y1449D01*
X736Y1447D01*
X740Y1447D01*
X740Y1445D01*
X742Y1445D01*
X742Y1443D01*
X744Y1443D01*
X744Y1441D01*
X746Y1441D01*
X746Y1437D01*
X748Y1437D01*
X748Y1435D01*
X750Y1435D01*
X750Y1431D01*
X752Y1431D01*
X752Y1425D01*
X754Y1425D01*
X754Y1415D01*
X756Y1415D01*
X756Y1411D01*
X754Y1411D01*
X754Y1401D01*
X752Y1401D01*
X752Y1395D01*
X750Y1395D01*
X750Y1391D01*
X748Y1391D01*
X748Y1389D01*
X746Y1389D01*
X746Y1385D01*
X744Y1385D01*
X744Y1383D01*
X742Y1383D01*
X742Y1381D01*
X740Y1381D01*
X740Y1379D01*
X736Y1379D01*
X736Y1377D01*
X734Y1377D01*
X734Y1375D01*
X730Y1375D01*
X730Y1373D01*
X722Y1373D01*
X722Y1371D01*
X1212Y1371D01*
X1212Y1459D01*
X40Y1459D01*
G37*
D02*
G36*
X40Y1455D02*
X40Y1371D01*
X702Y1371D01*
X702Y1373D01*
X696Y1373D01*
X696Y1375D01*
X692Y1375D01*
X692Y1377D01*
X688Y1377D01*
X688Y1379D01*
X686Y1379D01*
X686Y1381D01*
X684Y1381D01*
X684Y1383D01*
X682Y1383D01*
X682Y1385D01*
X680Y1385D01*
X680Y1387D01*
X678Y1387D01*
X678Y1391D01*
X676Y1391D01*
X676Y1393D01*
X674Y1393D01*
X674Y1399D01*
X672Y1399D01*
X672Y1405D01*
X670Y1405D01*
X670Y1421D01*
X672Y1421D01*
X672Y1427D01*
X674Y1427D01*
X674Y1433D01*
X676Y1433D01*
X676Y1435D01*
X678Y1435D01*
X678Y1439D01*
X680Y1439D01*
X680Y1441D01*
X682Y1441D01*
X682Y1443D01*
X684Y1443D01*
X684Y1445D01*
X686Y1445D01*
X686Y1447D01*
X688Y1447D01*
X688Y1449D01*
X692Y1449D01*
X692Y1451D01*
X696Y1451D01*
X696Y1453D01*
X702Y1453D01*
X702Y1455D01*
X40Y1455D01*
G37*
D02*
G36*
X40Y1371D02*
X40Y1369D01*
X1212Y1369D01*
X1212Y1371D01*
X40Y1371D01*
G37*
D02*
G36*
X40Y1371D02*
X40Y1369D01*
X1212Y1369D01*
X1212Y1371D01*
X40Y1371D01*
G37*
D02*
G36*
X40Y1369D02*
X40Y1359D01*
X1212Y1359D01*
X1212Y1369D01*
X40Y1369D01*
G37*
D02*
G36*
X40Y1359D02*
X40Y1357D01*
X1534Y1357D01*
X1534Y1359D01*
X40Y1359D01*
G37*
D02*
G36*
X40Y1359D02*
X40Y1357D01*
X1534Y1357D01*
X1534Y1359D01*
X40Y1359D01*
G37*
D02*
G36*
X40Y1357D02*
X40Y1313D01*
X1274Y1313D01*
X1274Y1311D01*
X1280Y1311D01*
X1280Y1309D01*
X1284Y1309D01*
X1284Y1307D01*
X1288Y1307D01*
X1288Y1305D01*
X1292Y1305D01*
X1292Y1303D01*
X1294Y1303D01*
X1294Y1301D01*
X1296Y1301D01*
X1296Y1299D01*
X1298Y1299D01*
X1298Y1297D01*
X1300Y1297D01*
X1300Y1295D01*
X1302Y1295D01*
X1302Y1291D01*
X1304Y1291D01*
X1304Y1289D01*
X1306Y1289D01*
X1306Y1285D01*
X1308Y1285D01*
X1308Y1279D01*
X1310Y1279D01*
X1310Y1271D01*
X1312Y1271D01*
X1312Y1257D01*
X1310Y1257D01*
X1310Y1247D01*
X1308Y1247D01*
X1308Y1243D01*
X1306Y1243D01*
X1306Y1239D01*
X1304Y1239D01*
X1304Y1235D01*
X1302Y1235D01*
X1302Y1233D01*
X1300Y1233D01*
X1300Y1231D01*
X1298Y1231D01*
X1298Y1229D01*
X1296Y1229D01*
X1296Y1227D01*
X1294Y1227D01*
X1294Y1225D01*
X1292Y1225D01*
X1292Y1223D01*
X1290Y1223D01*
X1290Y1221D01*
X1286Y1221D01*
X1286Y1219D01*
X1282Y1219D01*
X1282Y1217D01*
X1276Y1217D01*
X1276Y1215D01*
X1266Y1215D01*
X1266Y1213D01*
X1534Y1213D01*
X1534Y1357D01*
X40Y1357D01*
G37*
D02*
G36*
X40Y1313D02*
X40Y1255D01*
X756Y1255D01*
X756Y1213D01*
X1256Y1213D01*
X1256Y1215D01*
X1246Y1215D01*
X1246Y1217D01*
X1242Y1217D01*
X1242Y1219D01*
X1238Y1219D01*
X1238Y1221D01*
X1234Y1221D01*
X1234Y1223D01*
X1232Y1223D01*
X1232Y1225D01*
X1230Y1225D01*
X1230Y1227D01*
X1226Y1227D01*
X1226Y1231D01*
X1224Y1231D01*
X1224Y1233D01*
X1222Y1233D01*
X1222Y1235D01*
X1220Y1235D01*
X1220Y1239D01*
X1218Y1239D01*
X1218Y1241D01*
X1216Y1241D01*
X1216Y1247D01*
X1214Y1247D01*
X1214Y1253D01*
X1212Y1253D01*
X1212Y1275D01*
X1214Y1275D01*
X1214Y1281D01*
X1216Y1281D01*
X1216Y1285D01*
X1218Y1285D01*
X1218Y1289D01*
X1220Y1289D01*
X1220Y1293D01*
X1222Y1293D01*
X1222Y1295D01*
X1224Y1295D01*
X1224Y1297D01*
X1226Y1297D01*
X1226Y1299D01*
X1228Y1299D01*
X1228Y1301D01*
X1230Y1301D01*
X1230Y1303D01*
X1232Y1303D01*
X1232Y1305D01*
X1236Y1305D01*
X1236Y1307D01*
X1240Y1307D01*
X1240Y1309D01*
X1242Y1309D01*
X1242Y1311D01*
X1250Y1311D01*
X1250Y1313D01*
X40Y1313D01*
G37*
D02*
G36*
X40Y1255D02*
X40Y1171D01*
X670Y1171D01*
X670Y1255D01*
X40Y1255D01*
G37*
D02*
G36*
X756Y1213D02*
X756Y1211D01*
X1534Y1211D01*
X1534Y1213D01*
X756Y1213D01*
G37*
D02*
G36*
X756Y1213D02*
X756Y1211D01*
X1534Y1211D01*
X1534Y1213D01*
X756Y1213D01*
G37*
D02*
G36*
X756Y1211D02*
X756Y1171D01*
X1534Y1171D01*
X1534Y1211D01*
X756Y1211D01*
G37*
D02*
G36*
X40Y1171D02*
X40Y1169D01*
X1534Y1169D01*
X1534Y1171D01*
X40Y1171D01*
G37*
D02*
G36*
X40Y1171D02*
X40Y1169D01*
X1534Y1169D01*
X1534Y1171D01*
X40Y1171D01*
G37*
D02*
G36*
X40Y1169D02*
X40Y1145D01*
X336Y1145D01*
X336Y1129D01*
X466Y1129D01*
X466Y1127D01*
X474Y1127D01*
X474Y1125D01*
X480Y1125D01*
X480Y1123D01*
X484Y1123D01*
X484Y1121D01*
X486Y1121D01*
X486Y1119D01*
X490Y1119D01*
X490Y1117D01*
X492Y1117D01*
X492Y1115D01*
X494Y1115D01*
X494Y1113D01*
X496Y1113D01*
X496Y1111D01*
X498Y1111D01*
X498Y1107D01*
X500Y1107D01*
X500Y1105D01*
X502Y1105D01*
X502Y1101D01*
X504Y1101D01*
X504Y1095D01*
X506Y1095D01*
X506Y1087D01*
X508Y1087D01*
X508Y1075D01*
X506Y1075D01*
X506Y1069D01*
X1252Y1069D01*
X1252Y1071D01*
X1244Y1071D01*
X1244Y1073D01*
X1240Y1073D01*
X1240Y1075D01*
X1236Y1075D01*
X1236Y1077D01*
X1234Y1077D01*
X1234Y1079D01*
X1230Y1079D01*
X1230Y1081D01*
X1228Y1081D01*
X1228Y1083D01*
X1226Y1083D01*
X1226Y1085D01*
X1224Y1085D01*
X1224Y1087D01*
X1222Y1087D01*
X1222Y1091D01*
X1220Y1091D01*
X1220Y1093D01*
X1218Y1093D01*
X1218Y1097D01*
X1216Y1097D01*
X1216Y1101D01*
X1214Y1101D01*
X1214Y1109D01*
X1212Y1109D01*
X1212Y1129D01*
X1214Y1129D01*
X1214Y1137D01*
X1216Y1137D01*
X1216Y1141D01*
X1218Y1141D01*
X1218Y1145D01*
X1220Y1145D01*
X1220Y1147D01*
X1222Y1147D01*
X1222Y1151D01*
X1224Y1151D01*
X1224Y1153D01*
X1226Y1153D01*
X1226Y1155D01*
X1228Y1155D01*
X1228Y1157D01*
X1230Y1157D01*
X1230Y1159D01*
X1234Y1159D01*
X1234Y1161D01*
X1236Y1161D01*
X1236Y1163D01*
X1240Y1163D01*
X1240Y1165D01*
X1246Y1165D01*
X1246Y1167D01*
X1252Y1167D01*
X1252Y1169D01*
X40Y1169D01*
G37*
D02*
G36*
X1270Y1169D02*
X1270Y1167D01*
X1278Y1167D01*
X1278Y1165D01*
X1284Y1165D01*
X1284Y1163D01*
X1286Y1163D01*
X1286Y1161D01*
X1290Y1161D01*
X1290Y1159D01*
X1292Y1159D01*
X1292Y1157D01*
X1294Y1157D01*
X1294Y1155D01*
X1298Y1155D01*
X1298Y1151D01*
X1300Y1151D01*
X1300Y1149D01*
X1302Y1149D01*
X1302Y1147D01*
X1304Y1147D01*
X1304Y1143D01*
X1306Y1143D01*
X1306Y1139D01*
X1308Y1139D01*
X1308Y1135D01*
X1310Y1135D01*
X1310Y1127D01*
X1312Y1127D01*
X1312Y1111D01*
X1310Y1111D01*
X1310Y1103D01*
X1308Y1103D01*
X1308Y1097D01*
X1306Y1097D01*
X1306Y1095D01*
X1304Y1095D01*
X1304Y1091D01*
X1302Y1091D01*
X1302Y1089D01*
X1300Y1089D01*
X1300Y1085D01*
X1298Y1085D01*
X1298Y1083D01*
X1296Y1083D01*
X1296Y1081D01*
X1292Y1081D01*
X1292Y1079D01*
X1290Y1079D01*
X1290Y1077D01*
X1286Y1077D01*
X1286Y1075D01*
X1284Y1075D01*
X1284Y1073D01*
X1278Y1073D01*
X1278Y1071D01*
X1272Y1071D01*
X1272Y1069D01*
X1534Y1069D01*
X1534Y1169D01*
X1270Y1169D01*
G37*
D02*
G36*
X40Y1145D02*
X40Y1061D01*
X194Y1061D01*
X194Y1063D01*
X182Y1063D01*
X182Y1065D01*
X178Y1065D01*
X178Y1067D01*
X174Y1067D01*
X174Y1069D01*
X172Y1069D01*
X172Y1071D01*
X168Y1071D01*
X168Y1073D01*
X166Y1073D01*
X166Y1075D01*
X164Y1075D01*
X164Y1077D01*
X162Y1077D01*
X162Y1081D01*
X160Y1081D01*
X160Y1085D01*
X158Y1085D01*
X158Y1089D01*
X156Y1089D01*
X156Y1095D01*
X154Y1095D01*
X154Y1111D01*
X156Y1111D01*
X156Y1119D01*
X158Y1119D01*
X158Y1123D01*
X160Y1123D01*
X160Y1125D01*
X162Y1125D01*
X162Y1129D01*
X164Y1129D01*
X164Y1131D01*
X166Y1131D01*
X166Y1133D01*
X168Y1133D01*
X168Y1135D01*
X170Y1135D01*
X170Y1137D01*
X174Y1137D01*
X174Y1139D01*
X176Y1139D01*
X176Y1141D01*
X182Y1141D01*
X182Y1143D01*
X188Y1143D01*
X188Y1145D01*
X40Y1145D01*
G37*
D02*
G36*
X202Y1145D02*
X202Y1143D01*
X210Y1143D01*
X210Y1141D01*
X214Y1141D01*
X214Y1139D01*
X218Y1139D01*
X218Y1137D01*
X220Y1137D01*
X220Y1135D01*
X224Y1135D01*
X224Y1133D01*
X226Y1133D01*
X226Y1131D01*
X228Y1131D01*
X228Y1127D01*
X230Y1127D01*
X230Y1125D01*
X232Y1125D01*
X232Y1121D01*
X252Y1121D01*
X252Y1145D01*
X202Y1145D01*
G37*
D02*
G36*
X336Y1129D02*
X336Y1063D01*
X334Y1063D01*
X334Y1061D01*
X416Y1061D01*
X416Y1067D01*
X414Y1067D01*
X414Y1075D01*
X412Y1075D01*
X412Y1087D01*
X414Y1087D01*
X414Y1095D01*
X416Y1095D01*
X416Y1101D01*
X418Y1101D01*
X418Y1105D01*
X420Y1105D01*
X420Y1107D01*
X422Y1107D01*
X422Y1111D01*
X424Y1111D01*
X424Y1113D01*
X426Y1113D01*
X426Y1115D01*
X428Y1115D01*
X428Y1117D01*
X430Y1117D01*
X430Y1119D01*
X434Y1119D01*
X434Y1121D01*
X436Y1121D01*
X436Y1123D01*
X440Y1123D01*
X440Y1125D01*
X446Y1125D01*
X446Y1127D01*
X454Y1127D01*
X454Y1129D01*
X336Y1129D01*
G37*
D02*
G36*
X232Y1085D02*
X232Y1083D01*
X230Y1083D01*
X230Y1079D01*
X228Y1079D01*
X228Y1077D01*
X226Y1077D01*
X226Y1075D01*
X224Y1075D01*
X224Y1073D01*
X222Y1073D01*
X222Y1071D01*
X220Y1071D01*
X220Y1069D01*
X218Y1069D01*
X218Y1067D01*
X214Y1067D01*
X214Y1065D01*
X208Y1065D01*
X208Y1063D01*
X198Y1063D01*
X198Y1061D01*
X254Y1061D01*
X254Y1063D01*
X252Y1063D01*
X252Y1085D01*
X232Y1085D01*
G37*
D02*
G36*
X506Y1069D02*
X506Y1067D01*
X1534Y1067D01*
X1534Y1069D01*
X506Y1069D01*
G37*
D02*
G36*
X506Y1069D02*
X506Y1067D01*
X1534Y1067D01*
X1534Y1069D01*
X506Y1069D01*
G37*
D02*
G36*
X504Y1067D02*
X504Y1061D01*
X502Y1061D01*
X502Y1057D01*
X500Y1057D01*
X500Y1055D01*
X498Y1055D01*
X498Y1051D01*
X496Y1051D01*
X496Y1049D01*
X494Y1049D01*
X494Y1047D01*
X492Y1047D01*
X492Y1045D01*
X490Y1045D01*
X490Y1043D01*
X486Y1043D01*
X486Y1041D01*
X484Y1041D01*
X484Y1039D01*
X480Y1039D01*
X480Y1037D01*
X474Y1037D01*
X474Y1035D01*
X466Y1035D01*
X466Y1033D01*
X1534Y1033D01*
X1534Y1067D01*
X504Y1067D01*
G37*
D02*
G36*
X40Y1061D02*
X40Y1059D01*
X418Y1059D01*
X418Y1061D01*
X40Y1061D01*
G37*
D02*
G36*
X40Y1061D02*
X40Y1059D01*
X418Y1059D01*
X418Y1061D01*
X40Y1061D01*
G37*
D02*
G36*
X40Y1061D02*
X40Y1059D01*
X418Y1059D01*
X418Y1061D01*
X40Y1061D01*
G37*
D02*
G36*
X40Y1059D02*
X40Y1033D01*
X454Y1033D01*
X454Y1035D01*
X446Y1035D01*
X446Y1037D01*
X440Y1037D01*
X440Y1039D01*
X436Y1039D01*
X436Y1041D01*
X434Y1041D01*
X434Y1043D01*
X430Y1043D01*
X430Y1045D01*
X428Y1045D01*
X428Y1047D01*
X426Y1047D01*
X426Y1049D01*
X424Y1049D01*
X424Y1051D01*
X422Y1051D01*
X422Y1055D01*
X420Y1055D01*
X420Y1057D01*
X418Y1057D01*
X418Y1059D01*
X40Y1059D01*
G37*
D02*
G36*
X40Y1033D02*
X40Y1031D01*
X1534Y1031D01*
X1534Y1033D01*
X40Y1033D01*
G37*
D02*
G36*
X40Y1033D02*
X40Y1031D01*
X1534Y1031D01*
X1534Y1033D01*
X40Y1033D01*
G37*
D02*
G36*
X40Y1031D02*
X40Y729D01*
X466Y729D01*
X466Y727D01*
X474Y727D01*
X474Y725D01*
X480Y725D01*
X480Y723D01*
X484Y723D01*
X484Y721D01*
X486Y721D01*
X486Y719D01*
X490Y719D01*
X490Y717D01*
X492Y717D01*
X492Y715D01*
X494Y715D01*
X494Y713D01*
X496Y713D01*
X496Y711D01*
X498Y711D01*
X498Y707D01*
X500Y707D01*
X500Y705D01*
X502Y705D01*
X502Y701D01*
X504Y701D01*
X504Y695D01*
X506Y695D01*
X506Y687D01*
X508Y687D01*
X508Y675D01*
X506Y675D01*
X506Y667D01*
X504Y667D01*
X504Y661D01*
X502Y661D01*
X502Y657D01*
X500Y657D01*
X500Y655D01*
X498Y655D01*
X498Y651D01*
X496Y651D01*
X496Y649D01*
X494Y649D01*
X494Y647D01*
X492Y647D01*
X492Y645D01*
X490Y645D01*
X490Y643D01*
X486Y643D01*
X486Y641D01*
X484Y641D01*
X484Y639D01*
X480Y639D01*
X480Y637D01*
X474Y637D01*
X474Y635D01*
X466Y635D01*
X466Y633D01*
X1534Y633D01*
X1534Y1031D01*
X40Y1031D01*
G37*
D02*
G36*
X40Y729D02*
X40Y633D01*
X454Y633D01*
X454Y635D01*
X446Y635D01*
X446Y637D01*
X440Y637D01*
X440Y639D01*
X436Y639D01*
X436Y641D01*
X434Y641D01*
X434Y643D01*
X430Y643D01*
X430Y645D01*
X428Y645D01*
X428Y647D01*
X426Y647D01*
X426Y649D01*
X424Y649D01*
X424Y651D01*
X422Y651D01*
X422Y655D01*
X420Y655D01*
X420Y657D01*
X418Y657D01*
X418Y661D01*
X416Y661D01*
X416Y667D01*
X414Y667D01*
X414Y675D01*
X412Y675D01*
X412Y687D01*
X414Y687D01*
X414Y695D01*
X416Y695D01*
X416Y701D01*
X418Y701D01*
X418Y705D01*
X420Y705D01*
X420Y707D01*
X422Y707D01*
X422Y711D01*
X424Y711D01*
X424Y713D01*
X426Y713D01*
X426Y715D01*
X428Y715D01*
X428Y717D01*
X430Y717D01*
X430Y719D01*
X434Y719D01*
X434Y721D01*
X436Y721D01*
X436Y723D01*
X440Y723D01*
X440Y725D01*
X446Y725D01*
X446Y727D01*
X454Y727D01*
X454Y729D01*
X40Y729D01*
G37*
D02*
G36*
X40Y633D02*
X40Y631D01*
X1534Y631D01*
X1534Y633D01*
X40Y633D01*
G37*
D02*
G36*
X40Y633D02*
X40Y631D01*
X1534Y631D01*
X1534Y633D01*
X40Y633D01*
G37*
D02*
G36*
X40Y631D02*
X40Y615D01*
X1296Y615D01*
X1296Y515D01*
X1534Y515D01*
X1534Y631D01*
X40Y631D01*
G37*
D02*
G36*
X40Y615D02*
X40Y515D01*
X1196Y515D01*
X1196Y615D01*
X40Y615D01*
G37*
D02*
G36*
X40Y515D02*
X40Y513D01*
X1534Y513D01*
X1534Y515D01*
X40Y515D01*
G37*
D02*
G36*
X40Y515D02*
X40Y513D01*
X1534Y513D01*
X1534Y515D01*
X40Y515D01*
G37*
D02*
G36*
X40Y513D02*
X40Y471D01*
X1254Y471D01*
X1254Y469D01*
X1262Y469D01*
X1262Y467D01*
X1268Y467D01*
X1268Y465D01*
X1270Y465D01*
X1270Y463D01*
X1274Y463D01*
X1274Y461D01*
X1276Y461D01*
X1276Y459D01*
X1280Y459D01*
X1280Y457D01*
X1282Y457D01*
X1282Y455D01*
X1284Y455D01*
X1284Y451D01*
X1286Y451D01*
X1286Y449D01*
X1288Y449D01*
X1288Y445D01*
X1290Y445D01*
X1290Y443D01*
X1292Y443D01*
X1292Y437D01*
X1294Y437D01*
X1294Y431D01*
X1296Y431D01*
X1296Y411D01*
X1294Y411D01*
X1294Y403D01*
X1292Y403D01*
X1292Y399D01*
X1290Y399D01*
X1290Y395D01*
X1288Y395D01*
X1288Y393D01*
X1286Y393D01*
X1286Y389D01*
X1284Y389D01*
X1284Y387D01*
X1282Y387D01*
X1282Y385D01*
X1280Y385D01*
X1280Y383D01*
X1278Y383D01*
X1278Y381D01*
X1274Y381D01*
X1274Y379D01*
X1272Y379D01*
X1272Y377D01*
X1268Y377D01*
X1268Y375D01*
X1264Y375D01*
X1264Y373D01*
X1256Y373D01*
X1256Y371D01*
X1534Y371D01*
X1534Y513D01*
X40Y513D01*
G37*
D02*
G36*
X40Y471D02*
X40Y425D01*
X448Y425D01*
X448Y423D01*
X458Y423D01*
X458Y421D01*
X466Y421D01*
X466Y419D01*
X472Y419D01*
X472Y417D01*
X476Y417D01*
X476Y415D01*
X480Y415D01*
X480Y413D01*
X484Y413D01*
X484Y411D01*
X486Y411D01*
X486Y409D01*
X490Y409D01*
X490Y407D01*
X492Y407D01*
X492Y405D01*
X494Y405D01*
X494Y403D01*
X498Y403D01*
X498Y401D01*
X500Y401D01*
X500Y399D01*
X502Y399D01*
X502Y397D01*
X504Y397D01*
X504Y395D01*
X506Y395D01*
X506Y393D01*
X508Y393D01*
X508Y391D01*
X510Y391D01*
X510Y387D01*
X512Y387D01*
X512Y385D01*
X514Y385D01*
X514Y381D01*
X516Y381D01*
X516Y379D01*
X518Y379D01*
X518Y375D01*
X520Y375D01*
X520Y371D01*
X1236Y371D01*
X1236Y373D01*
X1228Y373D01*
X1228Y375D01*
X1224Y375D01*
X1224Y377D01*
X1220Y377D01*
X1220Y379D01*
X1218Y379D01*
X1218Y381D01*
X1214Y381D01*
X1214Y383D01*
X1212Y383D01*
X1212Y385D01*
X1210Y385D01*
X1210Y387D01*
X1208Y387D01*
X1208Y389D01*
X1206Y389D01*
X1206Y393D01*
X1204Y393D01*
X1204Y395D01*
X1202Y395D01*
X1202Y399D01*
X1200Y399D01*
X1200Y405D01*
X1198Y405D01*
X1198Y411D01*
X1196Y411D01*
X1196Y429D01*
X1198Y429D01*
X1198Y437D01*
X1200Y437D01*
X1200Y443D01*
X1202Y443D01*
X1202Y445D01*
X1204Y445D01*
X1204Y449D01*
X1206Y449D01*
X1206Y451D01*
X1208Y451D01*
X1208Y455D01*
X1210Y455D01*
X1210Y457D01*
X1212Y457D01*
X1212Y459D01*
X1216Y459D01*
X1216Y461D01*
X1218Y461D01*
X1218Y463D01*
X1222Y463D01*
X1222Y465D01*
X1226Y465D01*
X1226Y467D01*
X1230Y467D01*
X1230Y469D01*
X1238Y469D01*
X1238Y471D01*
X40Y471D01*
G37*
D02*
G36*
X40Y425D02*
X40Y235D01*
X186Y235D01*
X186Y237D01*
X176Y237D01*
X176Y239D01*
X170Y239D01*
X170Y241D01*
X164Y241D01*
X164Y243D01*
X160Y243D01*
X160Y245D01*
X156Y245D01*
X156Y247D01*
X152Y247D01*
X152Y249D01*
X148Y249D01*
X148Y251D01*
X146Y251D01*
X146Y253D01*
X142Y253D01*
X142Y255D01*
X140Y255D01*
X140Y257D01*
X138Y257D01*
X138Y259D01*
X136Y259D01*
X136Y261D01*
X134Y261D01*
X134Y263D01*
X132Y263D01*
X132Y265D01*
X130Y265D01*
X130Y267D01*
X128Y267D01*
X128Y269D01*
X126Y269D01*
X126Y271D01*
X124Y271D01*
X124Y273D01*
X122Y273D01*
X122Y277D01*
X120Y277D01*
X120Y279D01*
X118Y279D01*
X118Y283D01*
X116Y283D01*
X116Y287D01*
X114Y287D01*
X114Y291D01*
X112Y291D01*
X112Y295D01*
X110Y295D01*
X110Y301D01*
X108Y301D01*
X108Y309D01*
X106Y309D01*
X106Y319D01*
X104Y319D01*
X104Y341D01*
X106Y341D01*
X106Y351D01*
X108Y351D01*
X108Y359D01*
X110Y359D01*
X110Y365D01*
X112Y365D01*
X112Y369D01*
X114Y369D01*
X114Y373D01*
X116Y373D01*
X116Y377D01*
X118Y377D01*
X118Y381D01*
X120Y381D01*
X120Y383D01*
X122Y383D01*
X122Y387D01*
X124Y387D01*
X124Y389D01*
X126Y389D01*
X126Y391D01*
X128Y391D01*
X128Y393D01*
X130Y393D01*
X130Y395D01*
X132Y395D01*
X132Y397D01*
X134Y397D01*
X134Y399D01*
X136Y399D01*
X136Y401D01*
X138Y401D01*
X138Y403D01*
X140Y403D01*
X140Y405D01*
X142Y405D01*
X142Y407D01*
X146Y407D01*
X146Y409D01*
X148Y409D01*
X148Y411D01*
X152Y411D01*
X152Y413D01*
X156Y413D01*
X156Y415D01*
X160Y415D01*
X160Y417D01*
X164Y417D01*
X164Y419D01*
X170Y419D01*
X170Y421D01*
X176Y421D01*
X176Y423D01*
X188Y423D01*
X188Y425D01*
X40Y425D01*
G37*
D02*
G36*
X212Y425D02*
X212Y423D01*
X222Y423D01*
X222Y421D01*
X230Y421D01*
X230Y419D01*
X234Y419D01*
X234Y417D01*
X240Y417D01*
X240Y415D01*
X244Y415D01*
X244Y413D01*
X246Y413D01*
X246Y411D01*
X250Y411D01*
X250Y409D01*
X254Y409D01*
X254Y407D01*
X256Y407D01*
X256Y405D01*
X258Y405D01*
X258Y403D01*
X262Y403D01*
X262Y401D01*
X264Y401D01*
X264Y399D01*
X266Y399D01*
X266Y397D01*
X268Y397D01*
X268Y395D01*
X270Y395D01*
X270Y393D01*
X272Y393D01*
X272Y389D01*
X274Y389D01*
X274Y387D01*
X276Y387D01*
X276Y385D01*
X278Y385D01*
X278Y381D01*
X280Y381D01*
X280Y379D01*
X282Y379D01*
X282Y375D01*
X284Y375D01*
X284Y371D01*
X286Y371D01*
X286Y367D01*
X288Y367D01*
X288Y361D01*
X290Y361D01*
X290Y355D01*
X292Y355D01*
X292Y345D01*
X294Y345D01*
X294Y315D01*
X292Y315D01*
X292Y305D01*
X290Y305D01*
X290Y299D01*
X288Y299D01*
X288Y293D01*
X286Y293D01*
X286Y289D01*
X284Y289D01*
X284Y285D01*
X282Y285D01*
X282Y281D01*
X280Y281D01*
X280Y279D01*
X278Y279D01*
X278Y275D01*
X276Y275D01*
X276Y273D01*
X274Y273D01*
X274Y271D01*
X272Y271D01*
X272Y267D01*
X270Y267D01*
X270Y265D01*
X268Y265D01*
X268Y263D01*
X266Y263D01*
X266Y261D01*
X264Y261D01*
X264Y259D01*
X262Y259D01*
X262Y257D01*
X258Y257D01*
X258Y255D01*
X256Y255D01*
X256Y253D01*
X254Y253D01*
X254Y251D01*
X250Y251D01*
X250Y249D01*
X248Y249D01*
X248Y247D01*
X244Y247D01*
X244Y245D01*
X240Y245D01*
X240Y243D01*
X236Y243D01*
X236Y241D01*
X230Y241D01*
X230Y239D01*
X336Y239D01*
X336Y237D01*
X344Y237D01*
X344Y235D01*
X422Y235D01*
X422Y237D01*
X412Y237D01*
X412Y239D01*
X406Y239D01*
X406Y241D01*
X400Y241D01*
X400Y243D01*
X396Y243D01*
X396Y245D01*
X392Y245D01*
X392Y247D01*
X388Y247D01*
X388Y249D01*
X384Y249D01*
X384Y251D01*
X382Y251D01*
X382Y253D01*
X378Y253D01*
X378Y255D01*
X376Y255D01*
X376Y257D01*
X374Y257D01*
X374Y259D01*
X372Y259D01*
X372Y261D01*
X370Y261D01*
X370Y263D01*
X368Y263D01*
X368Y265D01*
X366Y265D01*
X366Y267D01*
X364Y267D01*
X364Y269D01*
X362Y269D01*
X362Y271D01*
X360Y271D01*
X360Y275D01*
X358Y275D01*
X358Y277D01*
X356Y277D01*
X356Y279D01*
X354Y279D01*
X354Y283D01*
X352Y283D01*
X352Y287D01*
X350Y287D01*
X350Y291D01*
X348Y291D01*
X348Y295D01*
X346Y295D01*
X346Y301D01*
X344Y301D01*
X344Y309D01*
X342Y309D01*
X342Y323D01*
X340Y323D01*
X340Y337D01*
X342Y337D01*
X342Y351D01*
X344Y351D01*
X344Y359D01*
X346Y359D01*
X346Y363D01*
X348Y363D01*
X348Y369D01*
X350Y369D01*
X350Y373D01*
X352Y373D01*
X352Y377D01*
X354Y377D01*
X354Y379D01*
X356Y379D01*
X356Y383D01*
X358Y383D01*
X358Y385D01*
X360Y385D01*
X360Y389D01*
X362Y389D01*
X362Y391D01*
X364Y391D01*
X364Y393D01*
X366Y393D01*
X366Y395D01*
X368Y395D01*
X368Y397D01*
X370Y397D01*
X370Y399D01*
X372Y399D01*
X372Y401D01*
X374Y401D01*
X374Y403D01*
X376Y403D01*
X376Y405D01*
X378Y405D01*
X378Y407D01*
X382Y407D01*
X382Y409D01*
X384Y409D01*
X384Y411D01*
X388Y411D01*
X388Y413D01*
X392Y413D01*
X392Y415D01*
X396Y415D01*
X396Y417D01*
X400Y417D01*
X400Y419D01*
X406Y419D01*
X406Y421D01*
X412Y421D01*
X412Y423D01*
X424Y423D01*
X424Y425D01*
X212Y425D01*
G37*
D02*
G36*
X522Y371D02*
X522Y369D01*
X1534Y369D01*
X1534Y371D01*
X522Y371D01*
G37*
D02*
G36*
X522Y371D02*
X522Y369D01*
X1534Y369D01*
X1534Y371D01*
X522Y371D01*
G37*
D02*
G36*
X522Y369D02*
X522Y367D01*
X524Y367D01*
X524Y361D01*
X526Y361D01*
X526Y355D01*
X528Y355D01*
X528Y347D01*
X530Y347D01*
X530Y325D01*
X1260Y325D01*
X1260Y323D01*
X1266Y323D01*
X1266Y321D01*
X1270Y321D01*
X1270Y319D01*
X1272Y319D01*
X1272Y317D01*
X1276Y317D01*
X1276Y315D01*
X1278Y315D01*
X1278Y313D01*
X1280Y313D01*
X1280Y311D01*
X1282Y311D01*
X1282Y309D01*
X1284Y309D01*
X1284Y307D01*
X1286Y307D01*
X1286Y305D01*
X1288Y305D01*
X1288Y301D01*
X1290Y301D01*
X1290Y297D01*
X1292Y297D01*
X1292Y293D01*
X1294Y293D01*
X1294Y285D01*
X1296Y285D01*
X1296Y267D01*
X1294Y267D01*
X1294Y259D01*
X1292Y259D01*
X1292Y255D01*
X1290Y255D01*
X1290Y251D01*
X1288Y251D01*
X1288Y247D01*
X1286Y247D01*
X1286Y245D01*
X1284Y245D01*
X1284Y243D01*
X1282Y243D01*
X1282Y241D01*
X1280Y241D01*
X1280Y239D01*
X1278Y239D01*
X1278Y237D01*
X1276Y237D01*
X1276Y235D01*
X1272Y235D01*
X1272Y233D01*
X1270Y233D01*
X1270Y231D01*
X1266Y231D01*
X1266Y229D01*
X1260Y229D01*
X1260Y227D01*
X1534Y227D01*
X1534Y369D01*
X522Y369D01*
G37*
D02*
G36*
X530Y325D02*
X530Y313D01*
X528Y313D01*
X528Y305D01*
X526Y305D01*
X526Y299D01*
X524Y299D01*
X524Y293D01*
X522Y293D01*
X522Y289D01*
X520Y289D01*
X520Y285D01*
X518Y285D01*
X518Y281D01*
X516Y281D01*
X516Y279D01*
X514Y279D01*
X514Y275D01*
X512Y275D01*
X512Y273D01*
X510Y273D01*
X510Y269D01*
X508Y269D01*
X508Y267D01*
X506Y267D01*
X506Y265D01*
X504Y265D01*
X504Y263D01*
X502Y263D01*
X502Y261D01*
X500Y261D01*
X500Y259D01*
X498Y259D01*
X498Y257D01*
X496Y257D01*
X496Y255D01*
X492Y255D01*
X492Y253D01*
X490Y253D01*
X490Y251D01*
X486Y251D01*
X486Y249D01*
X484Y249D01*
X484Y247D01*
X480Y247D01*
X480Y245D01*
X476Y245D01*
X476Y243D01*
X472Y243D01*
X472Y241D01*
X466Y241D01*
X466Y239D01*
X458Y239D01*
X458Y237D01*
X448Y237D01*
X448Y235D01*
X1216Y235D01*
X1216Y237D01*
X1214Y237D01*
X1214Y239D01*
X1212Y239D01*
X1212Y241D01*
X1210Y241D01*
X1210Y243D01*
X1208Y243D01*
X1208Y245D01*
X1206Y245D01*
X1206Y247D01*
X1204Y247D01*
X1204Y251D01*
X1202Y251D01*
X1202Y255D01*
X1200Y255D01*
X1200Y259D01*
X1198Y259D01*
X1198Y267D01*
X1196Y267D01*
X1196Y285D01*
X1198Y285D01*
X1198Y293D01*
X1200Y293D01*
X1200Y297D01*
X1202Y297D01*
X1202Y301D01*
X1204Y301D01*
X1204Y305D01*
X1206Y305D01*
X1206Y307D01*
X1208Y307D01*
X1208Y309D01*
X1210Y309D01*
X1210Y311D01*
X1212Y311D01*
X1212Y313D01*
X1214Y313D01*
X1214Y315D01*
X1216Y315D01*
X1216Y317D01*
X1220Y317D01*
X1220Y319D01*
X1222Y319D01*
X1222Y321D01*
X1226Y321D01*
X1226Y323D01*
X1232Y323D01*
X1232Y325D01*
X530Y325D01*
G37*
D02*
G36*
X222Y239D02*
X222Y237D01*
X212Y237D01*
X212Y235D01*
X292Y235D01*
X292Y237D01*
X300Y237D01*
X300Y239D01*
X222Y239D01*
G37*
D02*
G36*
X40Y235D02*
X40Y233D01*
X284Y233D01*
X284Y235D01*
X40Y235D01*
G37*
D02*
G36*
X40Y235D02*
X40Y233D01*
X284Y233D01*
X284Y235D01*
X40Y235D01*
G37*
D02*
G36*
X350Y235D02*
X350Y233D01*
X1220Y233D01*
X1220Y235D01*
X350Y235D01*
G37*
D02*
G36*
X350Y235D02*
X350Y233D01*
X1220Y233D01*
X1220Y235D01*
X350Y235D01*
G37*
D02*
G36*
X40Y233D02*
X40Y41D01*
X276Y41D01*
X276Y61D01*
X272Y61D01*
X272Y63D01*
X268Y63D01*
X268Y65D01*
X264Y65D01*
X264Y67D01*
X262Y67D01*
X262Y69D01*
X260Y69D01*
X260Y71D01*
X256Y71D01*
X256Y73D01*
X254Y73D01*
X254Y75D01*
X252Y75D01*
X252Y77D01*
X250Y77D01*
X250Y79D01*
X248Y79D01*
X248Y81D01*
X246Y81D01*
X246Y83D01*
X244Y83D01*
X244Y87D01*
X242Y87D01*
X242Y89D01*
X240Y89D01*
X240Y91D01*
X238Y91D01*
X238Y95D01*
X236Y95D01*
X236Y99D01*
X234Y99D01*
X234Y101D01*
X232Y101D01*
X232Y105D01*
X230Y105D01*
X230Y111D01*
X228Y111D01*
X228Y117D01*
X226Y117D01*
X226Y123D01*
X224Y123D01*
X224Y135D01*
X222Y135D01*
X222Y155D01*
X224Y155D01*
X224Y165D01*
X226Y165D01*
X226Y173D01*
X228Y173D01*
X228Y179D01*
X230Y179D01*
X230Y185D01*
X232Y185D01*
X232Y189D01*
X234Y189D01*
X234Y191D01*
X236Y191D01*
X236Y195D01*
X238Y195D01*
X238Y199D01*
X240Y199D01*
X240Y201D01*
X242Y201D01*
X242Y203D01*
X244Y203D01*
X244Y207D01*
X246Y207D01*
X246Y209D01*
X248Y209D01*
X248Y211D01*
X250Y211D01*
X250Y213D01*
X252Y213D01*
X252Y215D01*
X254Y215D01*
X254Y217D01*
X256Y217D01*
X256Y219D01*
X260Y219D01*
X260Y221D01*
X262Y221D01*
X262Y223D01*
X266Y223D01*
X266Y225D01*
X268Y225D01*
X268Y227D01*
X272Y227D01*
X272Y229D01*
X276Y229D01*
X276Y231D01*
X280Y231D01*
X280Y233D01*
X40Y233D01*
G37*
D02*
G36*
X356Y233D02*
X356Y231D01*
X360Y231D01*
X360Y229D01*
X364Y229D01*
X364Y227D01*
X1232Y227D01*
X1232Y229D01*
X1226Y229D01*
X1226Y231D01*
X1222Y231D01*
X1222Y233D01*
X356Y233D01*
G37*
D02*
G36*
X366Y227D02*
X366Y225D01*
X1534Y225D01*
X1534Y227D01*
X366Y227D01*
G37*
D02*
G36*
X366Y227D02*
X366Y225D01*
X1534Y225D01*
X1534Y227D01*
X366Y227D01*
G37*
D02*
G36*
X370Y225D02*
X370Y223D01*
X372Y223D01*
X372Y221D01*
X376Y221D01*
X376Y219D01*
X378Y219D01*
X378Y217D01*
X380Y217D01*
X380Y215D01*
X382Y215D01*
X382Y213D01*
X384Y213D01*
X384Y211D01*
X386Y211D01*
X386Y209D01*
X388Y209D01*
X388Y207D01*
X390Y207D01*
X390Y205D01*
X392Y205D01*
X392Y203D01*
X394Y203D01*
X394Y199D01*
X396Y199D01*
X396Y197D01*
X398Y197D01*
X398Y193D01*
X400Y193D01*
X400Y189D01*
X402Y189D01*
X402Y185D01*
X404Y185D01*
X404Y181D01*
X406Y181D01*
X406Y177D01*
X408Y177D01*
X408Y169D01*
X410Y169D01*
X410Y161D01*
X412Y161D01*
X412Y129D01*
X410Y129D01*
X410Y121D01*
X408Y121D01*
X408Y113D01*
X406Y113D01*
X406Y107D01*
X404Y107D01*
X404Y103D01*
X402Y103D01*
X402Y99D01*
X400Y99D01*
X400Y97D01*
X398Y97D01*
X398Y93D01*
X396Y93D01*
X396Y91D01*
X394Y91D01*
X394Y87D01*
X392Y87D01*
X392Y85D01*
X390Y85D01*
X390Y83D01*
X388Y83D01*
X388Y81D01*
X386Y81D01*
X386Y79D01*
X384Y79D01*
X384Y77D01*
X382Y77D01*
X382Y75D01*
X380Y75D01*
X380Y73D01*
X378Y73D01*
X378Y71D01*
X376Y71D01*
X376Y69D01*
X372Y69D01*
X372Y67D01*
X370Y67D01*
X370Y65D01*
X366Y65D01*
X366Y63D01*
X364Y63D01*
X364Y61D01*
X360Y61D01*
X360Y41D01*
X1534Y41D01*
X1534Y225D01*
X370Y225D01*
G37*
D02*
G54D16*
X1222Y1448D02*
X1301Y1448D01*
X1222Y1447D02*
X1301Y1447D01*
X1222Y1446D02*
X1301Y1446D01*
X1222Y1445D02*
X1301Y1445D01*
X1222Y1444D02*
X1301Y1444D01*
X1222Y1443D02*
X1301Y1443D01*
X1222Y1442D02*
X1301Y1442D01*
X1222Y1441D02*
X1301Y1441D01*
X1222Y1440D02*
X1301Y1440D01*
X1222Y1439D02*
X1301Y1439D01*
X1222Y1438D02*
X1301Y1438D01*
X1222Y1437D02*
X1301Y1437D01*
X1222Y1436D02*
X1301Y1436D01*
X1222Y1435D02*
X1301Y1435D01*
X1222Y1434D02*
X1301Y1434D01*
X1222Y1433D02*
X1301Y1433D01*
X1222Y1432D02*
X1301Y1432D01*
X1222Y1431D02*
X1255Y1431D01*
X1268Y1431D02*
X1301Y1431D01*
X1222Y1430D02*
X1252Y1430D01*
X1271Y1430D02*
X1301Y1430D01*
X1222Y1429D02*
X1250Y1429D01*
X1273Y1429D02*
X1301Y1429D01*
X1222Y1428D02*
X1248Y1428D01*
X1275Y1428D02*
X1301Y1428D01*
X1222Y1427D02*
X1247Y1427D01*
X1276Y1427D02*
X1301Y1427D01*
X1222Y1426D02*
X1246Y1426D01*
X1277Y1426D02*
X1301Y1426D01*
X1222Y1425D02*
X1245Y1425D01*
X1279Y1425D02*
X1301Y1425D01*
X1222Y1424D02*
X1244Y1424D01*
X1280Y1424D02*
X1301Y1424D01*
X1222Y1423D02*
X1243Y1423D01*
X1280Y1423D02*
X1301Y1423D01*
X1222Y1422D02*
X1242Y1422D01*
X1281Y1422D02*
X1301Y1422D01*
X1222Y1421D02*
X1241Y1421D01*
X1282Y1421D02*
X1301Y1421D01*
X1222Y1420D02*
X1241Y1420D01*
X1283Y1420D02*
X1301Y1420D01*
X1222Y1419D02*
X1240Y1419D01*
X1283Y1419D02*
X1301Y1419D01*
X1222Y1418D02*
X1240Y1418D01*
X1284Y1418D02*
X1301Y1418D01*
X1222Y1417D02*
X1239Y1417D01*
X1284Y1417D02*
X1301Y1417D01*
X1222Y1416D02*
X1239Y1416D01*
X1284Y1416D02*
X1301Y1416D01*
X1222Y1415D02*
X1239Y1415D01*
X1285Y1415D02*
X1301Y1415D01*
X1222Y1414D02*
X1238Y1414D01*
X1285Y1414D02*
X1301Y1414D01*
X1222Y1413D02*
X1238Y1413D01*
X1285Y1413D02*
X1301Y1413D01*
X1222Y1412D02*
X1238Y1412D01*
X1285Y1412D02*
X1301Y1412D01*
X1222Y1411D02*
X1238Y1411D01*
X1286Y1411D02*
X1301Y1411D01*
X1222Y1410D02*
X1238Y1410D01*
X1286Y1410D02*
X1301Y1410D01*
X1222Y1409D02*
X1237Y1409D01*
X1286Y1409D02*
X1301Y1409D01*
X1222Y1408D02*
X1237Y1408D01*
X1286Y1408D02*
X1301Y1408D01*
X1222Y1407D02*
X1238Y1407D01*
X1286Y1407D02*
X1301Y1407D01*
X1222Y1406D02*
X1238Y1406D01*
X1286Y1406D02*
X1301Y1406D01*
X1222Y1405D02*
X1238Y1405D01*
X1286Y1405D02*
X1301Y1405D01*
X1222Y1404D02*
X1238Y1404D01*
X1285Y1404D02*
X1301Y1404D01*
X1222Y1403D02*
X1238Y1403D01*
X1285Y1403D02*
X1301Y1403D01*
X1222Y1402D02*
X1238Y1402D01*
X1285Y1402D02*
X1301Y1402D01*
X1222Y1401D02*
X1239Y1401D01*
X1285Y1401D02*
X1301Y1401D01*
X1222Y1400D02*
X1239Y1400D01*
X1284Y1400D02*
X1301Y1400D01*
X1222Y1399D02*
X1239Y1399D01*
X1284Y1399D02*
X1301Y1399D01*
X1222Y1398D02*
X1240Y1398D01*
X1283Y1398D02*
X1301Y1398D01*
X1222Y1397D02*
X1240Y1397D01*
X1283Y1397D02*
X1301Y1397D01*
X1222Y1396D02*
X1241Y1396D01*
X1282Y1396D02*
X1301Y1396D01*
X1222Y1395D02*
X1241Y1395D01*
X1282Y1395D02*
X1301Y1395D01*
X1222Y1394D02*
X1242Y1394D01*
X1281Y1394D02*
X1301Y1394D01*
X1222Y1393D02*
X1243Y1393D01*
X1280Y1393D02*
X1301Y1393D01*
X1222Y1392D02*
X1244Y1392D01*
X1279Y1392D02*
X1301Y1392D01*
X1222Y1391D02*
X1245Y1391D01*
X1278Y1391D02*
X1301Y1391D01*
X1222Y1390D02*
X1246Y1390D01*
X1277Y1390D02*
X1301Y1390D01*
X1222Y1389D02*
X1247Y1389D01*
X1276Y1389D02*
X1301Y1389D01*
X1222Y1388D02*
X1249Y1388D01*
X1274Y1388D02*
X1301Y1388D01*
X1222Y1387D02*
X1251Y1387D01*
X1273Y1387D02*
X1301Y1387D01*
X1222Y1386D02*
X1253Y1386D01*
X1270Y1386D02*
X1301Y1386D01*
X1222Y1385D02*
X1256Y1385D01*
X1267Y1385D02*
X1301Y1385D01*
X1222Y1384D02*
X1301Y1384D01*
X1222Y1383D02*
X1301Y1383D01*
X1222Y1382D02*
X1301Y1382D01*
X1222Y1381D02*
X1301Y1381D01*
X1222Y1380D02*
X1301Y1380D01*
X1222Y1379D02*
X1301Y1379D01*
X1222Y1378D02*
X1301Y1378D01*
X1222Y1377D02*
X1301Y1377D01*
X1222Y1376D02*
X1301Y1376D01*
X1222Y1375D02*
X1301Y1375D01*
X1222Y1374D02*
X1301Y1374D01*
X1222Y1373D02*
X1301Y1373D01*
X1222Y1372D02*
X1301Y1372D01*
X1222Y1371D02*
X1301Y1371D01*
X1222Y1370D02*
X1301Y1370D01*
X1222Y1369D02*
X1301Y1369D01*
X681Y1245D02*
X745Y1245D01*
X681Y1244D02*
X745Y1244D01*
X681Y1243D02*
X745Y1243D01*
X681Y1242D02*
X745Y1242D01*
X681Y1241D02*
X745Y1241D01*
X681Y1240D02*
X745Y1240D01*
X681Y1239D02*
X745Y1239D01*
X681Y1238D02*
X745Y1238D01*
X681Y1237D02*
X745Y1237D01*
X681Y1236D02*
X745Y1236D01*
X681Y1235D02*
X745Y1235D01*
X681Y1234D02*
X745Y1234D01*
X681Y1233D02*
X745Y1233D01*
X681Y1232D02*
X745Y1232D01*
X681Y1231D02*
X745Y1231D01*
X681Y1230D02*
X745Y1230D01*
X681Y1229D02*
X745Y1229D01*
X681Y1228D02*
X745Y1228D01*
X681Y1227D02*
X745Y1227D01*
X681Y1226D02*
X709Y1226D01*
X717Y1226D02*
X745Y1226D01*
X681Y1225D02*
X706Y1225D01*
X719Y1225D02*
X745Y1225D01*
X681Y1224D02*
X704Y1224D01*
X721Y1224D02*
X745Y1224D01*
X681Y1223D02*
X703Y1223D01*
X722Y1223D02*
X745Y1223D01*
X681Y1222D02*
X702Y1222D01*
X723Y1222D02*
X745Y1222D01*
X681Y1221D02*
X701Y1221D01*
X724Y1221D02*
X745Y1221D01*
X681Y1220D02*
X701Y1220D01*
X725Y1220D02*
X745Y1220D01*
X681Y1219D02*
X700Y1219D01*
X725Y1219D02*
X745Y1219D01*
X681Y1218D02*
X700Y1218D01*
X726Y1218D02*
X745Y1218D01*
X681Y1217D02*
X699Y1217D01*
X726Y1217D02*
X745Y1217D01*
X681Y1216D02*
X699Y1216D01*
X727Y1216D02*
X745Y1216D01*
X681Y1215D02*
X699Y1215D01*
X727Y1215D02*
X745Y1215D01*
X681Y1214D02*
X699Y1214D01*
X727Y1214D02*
X745Y1214D01*
X681Y1213D02*
X699Y1213D01*
X727Y1213D02*
X745Y1213D01*
X681Y1212D02*
X699Y1212D01*
X727Y1212D02*
X745Y1212D01*
X681Y1211D02*
X699Y1211D01*
X727Y1211D02*
X745Y1211D01*
X681Y1210D02*
X699Y1210D01*
X727Y1210D02*
X745Y1210D01*
X681Y1209D02*
X699Y1209D01*
X726Y1209D02*
X745Y1209D01*
X681Y1208D02*
X699Y1208D01*
X726Y1208D02*
X745Y1208D01*
X681Y1207D02*
X700Y1207D01*
X726Y1207D02*
X745Y1207D01*
X681Y1206D02*
X700Y1206D01*
X725Y1206D02*
X745Y1206D01*
X681Y1205D02*
X701Y1205D01*
X725Y1205D02*
X745Y1205D01*
X681Y1204D02*
X702Y1204D01*
X724Y1204D02*
X745Y1204D01*
X681Y1203D02*
X703Y1203D01*
X723Y1203D02*
X745Y1203D01*
X681Y1202D02*
X704Y1202D01*
X722Y1202D02*
X745Y1202D01*
X681Y1201D02*
X705Y1201D01*
X720Y1201D02*
X745Y1201D01*
X681Y1200D02*
X707Y1200D01*
X719Y1200D02*
X745Y1200D01*
X681Y1199D02*
X712Y1199D01*
X714Y1199D02*
X745Y1199D01*
X681Y1198D02*
X745Y1198D01*
X681Y1197D02*
X745Y1197D01*
X681Y1196D02*
X745Y1196D01*
X681Y1195D02*
X745Y1195D01*
X681Y1194D02*
X745Y1194D01*
X681Y1193D02*
X745Y1193D01*
X681Y1192D02*
X745Y1192D01*
X681Y1191D02*
X745Y1191D01*
X681Y1190D02*
X745Y1190D01*
X681Y1189D02*
X745Y1189D01*
X681Y1188D02*
X745Y1188D01*
X681Y1187D02*
X745Y1187D01*
X681Y1186D02*
X745Y1186D01*
X681Y1185D02*
X745Y1185D01*
X681Y1184D02*
X745Y1184D01*
X681Y1183D02*
X745Y1183D01*
X681Y1182D02*
X745Y1182D01*
X681Y1181D02*
X745Y1181D01*
X1206Y605D02*
X1285Y605D01*
X1206Y604D02*
X1285Y604D01*
X1206Y603D02*
X1285Y603D01*
X1206Y602D02*
X1285Y602D01*
X1206Y601D02*
X1285Y601D01*
X1206Y600D02*
X1285Y600D01*
X1206Y599D02*
X1285Y599D01*
X1206Y598D02*
X1285Y598D01*
X1206Y597D02*
X1285Y597D01*
X1206Y596D02*
X1285Y596D01*
X1206Y595D02*
X1285Y595D01*
X1206Y594D02*
X1285Y594D01*
X1206Y593D02*
X1285Y593D01*
X1206Y592D02*
X1285Y592D01*
X1206Y591D02*
X1285Y591D01*
X1206Y590D02*
X1285Y590D01*
X1206Y589D02*
X1242Y589D01*
X1249Y589D02*
X1285Y589D01*
X1206Y588D02*
X1238Y588D01*
X1254Y588D02*
X1285Y588D01*
X1206Y587D02*
X1235Y587D01*
X1256Y587D02*
X1285Y587D01*
X1206Y586D02*
X1234Y586D01*
X1258Y586D02*
X1285Y586D01*
X1206Y585D02*
X1232Y585D01*
X1260Y585D02*
X1285Y585D01*
X1206Y584D02*
X1231Y584D01*
X1261Y584D02*
X1285Y584D01*
X1206Y583D02*
X1229Y583D01*
X1262Y583D02*
X1285Y583D01*
X1206Y582D02*
X1228Y582D01*
X1263Y582D02*
X1285Y582D01*
X1206Y581D02*
X1228Y581D01*
X1264Y581D02*
X1285Y581D01*
X1206Y580D02*
X1227Y580D01*
X1265Y580D02*
X1285Y580D01*
X1206Y579D02*
X1226Y579D01*
X1266Y579D02*
X1285Y579D01*
X1206Y578D02*
X1225Y578D01*
X1266Y578D02*
X1285Y578D01*
X1206Y577D02*
X1225Y577D01*
X1267Y577D02*
X1285Y577D01*
X1206Y576D02*
X1224Y576D01*
X1268Y576D02*
X1285Y576D01*
X1206Y575D02*
X1224Y575D01*
X1268Y575D02*
X1285Y575D01*
X1206Y574D02*
X1223Y574D01*
X1268Y574D02*
X1285Y574D01*
X1206Y573D02*
X1223Y573D01*
X1269Y573D02*
X1285Y573D01*
X1206Y572D02*
X1223Y572D01*
X1269Y572D02*
X1285Y572D01*
X1206Y571D02*
X1222Y571D01*
X1269Y571D02*
X1285Y571D01*
X1206Y570D02*
X1222Y570D01*
X1270Y570D02*
X1285Y570D01*
X1206Y569D02*
X1222Y569D01*
X1270Y569D02*
X1285Y569D01*
X1206Y568D02*
X1222Y568D01*
X1270Y568D02*
X1285Y568D01*
X1206Y567D02*
X1222Y567D01*
X1270Y567D02*
X1285Y567D01*
X1206Y566D02*
X1222Y566D01*
X1270Y566D02*
X1285Y566D01*
X1206Y565D02*
X1222Y565D01*
X1270Y565D02*
X1285Y565D01*
X1206Y564D02*
X1222Y564D01*
X1270Y564D02*
X1285Y564D01*
X1206Y563D02*
X1222Y563D01*
X1270Y563D02*
X1285Y563D01*
X1206Y562D02*
X1222Y562D01*
X1270Y562D02*
X1285Y562D01*
X1206Y561D02*
X1222Y561D01*
X1270Y561D02*
X1285Y561D01*
X1206Y560D02*
X1222Y560D01*
X1269Y560D02*
X1285Y560D01*
X1206Y559D02*
X1223Y559D01*
X1269Y559D02*
X1285Y559D01*
X1206Y558D02*
X1223Y558D01*
X1269Y558D02*
X1285Y558D01*
X1206Y557D02*
X1223Y557D01*
X1268Y557D02*
X1285Y557D01*
X1206Y556D02*
X1224Y556D01*
X1268Y556D02*
X1285Y556D01*
X1206Y555D02*
X1224Y555D01*
X1267Y555D02*
X1285Y555D01*
X1206Y554D02*
X1225Y554D01*
X1267Y554D02*
X1285Y554D01*
X1206Y553D02*
X1225Y553D01*
X1266Y553D02*
X1285Y553D01*
X1206Y552D02*
X1226Y552D01*
X1266Y552D02*
X1285Y552D01*
X1206Y551D02*
X1227Y551D01*
X1265Y551D02*
X1285Y551D01*
X1206Y550D02*
X1228Y550D01*
X1264Y550D02*
X1285Y550D01*
X1206Y549D02*
X1229Y549D01*
X1263Y549D02*
X1285Y549D01*
X1206Y548D02*
X1230Y548D01*
X1262Y548D02*
X1285Y548D01*
X1206Y547D02*
X1231Y547D01*
X1261Y547D02*
X1285Y547D01*
X1206Y546D02*
X1232Y546D01*
X1260Y546D02*
X1285Y546D01*
X1206Y545D02*
X1234Y545D01*
X1258Y545D02*
X1285Y545D01*
X1206Y544D02*
X1236Y544D01*
X1256Y544D02*
X1285Y544D01*
X1206Y543D02*
X1239Y543D01*
X1253Y543D02*
X1285Y543D01*
X1206Y542D02*
X1285Y542D01*
X1206Y541D02*
X1285Y541D01*
X1206Y540D02*
X1285Y540D01*
X1206Y539D02*
X1285Y539D01*
X1206Y538D02*
X1285Y538D01*
X1206Y537D02*
X1285Y537D01*
X1206Y536D02*
X1285Y536D01*
X1206Y535D02*
X1285Y535D01*
X1206Y534D02*
X1285Y534D01*
X1206Y533D02*
X1285Y533D01*
X1206Y532D02*
X1285Y532D01*
X1206Y531D02*
X1285Y531D01*
X1206Y530D02*
X1285Y530D01*
X1206Y529D02*
X1285Y529D01*
X1206Y528D02*
X1285Y528D01*
X1206Y527D02*
X1285Y527D01*
X1206Y526D02*
X1285Y526D01*
D02*
G04 End of Copper0*
M02*