G04 MADE WITH FRITZING*
G04 WWW.FRITZING.ORG*
G04 DOUBLE SIDED*
G04 HOLES PLATED*
G04 CONTOUR ON CENTER OF CONTOUR VECTOR*
%ASAXBY*%
%FSLAX23Y23*%
%MOIN*%
%OFA0B0*%
%SFA1.0B1.0*%
%ADD10C,0.180000*%
%ADD11C,0.090000*%
%ADD12C,0.072992*%
%ADD13C,0.085000*%
%ADD14C,0.075000*%
%ADD15R,0.072992X0.072992*%
%ADD16R,0.001000X0.001000*%
%LNMASK0*%
G90*
G70*
G54D10*
X436Y330D03*
X199Y330D03*
X317Y145D03*
G54D11*
X1262Y1408D03*
X1262Y1264D03*
X1262Y1119D03*
X1246Y565D03*
X1246Y421D03*
X1246Y276D03*
G54D12*
X294Y1103D03*
X196Y1103D03*
G54D13*
X460Y1081D03*
X460Y681D03*
G54D14*
X713Y1413D03*
X713Y1213D03*
G54D15*
X294Y1103D03*
G54D16*
X1217Y1453D02*
X1306Y1453D01*
X1217Y1452D02*
X1306Y1452D01*
X1217Y1451D02*
X1306Y1451D01*
X1217Y1450D02*
X1306Y1450D01*
X1217Y1449D02*
X1306Y1449D01*
X1217Y1448D02*
X1306Y1448D01*
X1217Y1447D02*
X1306Y1447D01*
X1217Y1446D02*
X1306Y1446D01*
X1217Y1445D02*
X1306Y1445D01*
X1217Y1444D02*
X1306Y1444D01*
X1217Y1443D02*
X1306Y1443D01*
X1217Y1442D02*
X1306Y1442D01*
X1217Y1441D02*
X1306Y1441D01*
X1217Y1440D02*
X1306Y1440D01*
X1217Y1439D02*
X1306Y1439D01*
X1217Y1438D02*
X1306Y1438D01*
X1217Y1437D02*
X1306Y1437D01*
X1217Y1436D02*
X1306Y1436D01*
X1217Y1435D02*
X1306Y1435D01*
X1217Y1434D02*
X1306Y1434D01*
X1217Y1433D02*
X1306Y1433D01*
X1217Y1432D02*
X1306Y1432D01*
X1217Y1431D02*
X1306Y1431D01*
X1217Y1430D02*
X1306Y1430D01*
X1217Y1429D02*
X1306Y1429D01*
X1217Y1428D02*
X1306Y1428D01*
X1217Y1427D02*
X1306Y1427D01*
X1217Y1426D02*
X1256Y1426D01*
X1268Y1426D02*
X1306Y1426D01*
X1217Y1425D02*
X1253Y1425D01*
X1270Y1425D02*
X1306Y1425D01*
X1217Y1424D02*
X1251Y1424D01*
X1272Y1424D02*
X1306Y1424D01*
X1217Y1423D02*
X1250Y1423D01*
X1273Y1423D02*
X1306Y1423D01*
X1217Y1422D02*
X1249Y1422D01*
X1275Y1422D02*
X1306Y1422D01*
X1217Y1421D02*
X1248Y1421D01*
X1276Y1421D02*
X1306Y1421D01*
X1217Y1420D02*
X1247Y1420D01*
X1276Y1420D02*
X1306Y1420D01*
X1217Y1419D02*
X1246Y1419D01*
X1277Y1419D02*
X1306Y1419D01*
X1217Y1418D02*
X1245Y1418D01*
X1278Y1418D02*
X1306Y1418D01*
X1217Y1417D02*
X1245Y1417D01*
X1278Y1417D02*
X1306Y1417D01*
X1217Y1416D02*
X1244Y1416D01*
X1279Y1416D02*
X1306Y1416D01*
X1217Y1415D02*
X1244Y1415D01*
X1279Y1415D02*
X1306Y1415D01*
X1217Y1414D02*
X1243Y1414D01*
X1280Y1414D02*
X1306Y1414D01*
X1217Y1413D02*
X1243Y1413D01*
X1280Y1413D02*
X1306Y1413D01*
X1217Y1412D02*
X1243Y1412D01*
X1280Y1412D02*
X1306Y1412D01*
X1217Y1411D02*
X1243Y1411D01*
X1281Y1411D02*
X1306Y1411D01*
X1217Y1410D02*
X1242Y1410D01*
X1281Y1410D02*
X1306Y1410D01*
X1217Y1409D02*
X1242Y1409D01*
X1281Y1409D02*
X1306Y1409D01*
X1217Y1408D02*
X1242Y1408D01*
X1281Y1408D02*
X1306Y1408D01*
X1217Y1407D02*
X1242Y1407D01*
X1281Y1407D02*
X1306Y1407D01*
X1217Y1406D02*
X1242Y1406D01*
X1281Y1406D02*
X1306Y1406D01*
X1217Y1405D02*
X1243Y1405D01*
X1281Y1405D02*
X1306Y1405D01*
X1217Y1404D02*
X1243Y1404D01*
X1280Y1404D02*
X1306Y1404D01*
X1217Y1403D02*
X1243Y1403D01*
X1280Y1403D02*
X1306Y1403D01*
X1217Y1402D02*
X1243Y1402D01*
X1280Y1402D02*
X1306Y1402D01*
X1217Y1401D02*
X1244Y1401D01*
X1279Y1401D02*
X1306Y1401D01*
X1217Y1400D02*
X1244Y1400D01*
X1279Y1400D02*
X1306Y1400D01*
X1217Y1399D02*
X1245Y1399D01*
X1278Y1399D02*
X1306Y1399D01*
X1217Y1398D02*
X1245Y1398D01*
X1278Y1398D02*
X1306Y1398D01*
X1217Y1397D02*
X1246Y1397D01*
X1277Y1397D02*
X1306Y1397D01*
X1217Y1396D02*
X1247Y1396D01*
X1276Y1396D02*
X1306Y1396D01*
X1217Y1395D02*
X1248Y1395D01*
X1275Y1395D02*
X1306Y1395D01*
X1217Y1394D02*
X1249Y1394D01*
X1274Y1394D02*
X1306Y1394D01*
X1217Y1393D02*
X1250Y1393D01*
X1273Y1393D02*
X1306Y1393D01*
X1217Y1392D02*
X1251Y1392D01*
X1272Y1392D02*
X1306Y1392D01*
X1217Y1391D02*
X1253Y1391D01*
X1270Y1391D02*
X1306Y1391D01*
X1217Y1390D02*
X1256Y1390D01*
X1267Y1390D02*
X1306Y1390D01*
X1217Y1389D02*
X1306Y1389D01*
X1217Y1388D02*
X1306Y1388D01*
X1217Y1387D02*
X1306Y1387D01*
X1217Y1386D02*
X1306Y1386D01*
X1217Y1385D02*
X1306Y1385D01*
X1217Y1384D02*
X1306Y1384D01*
X1217Y1383D02*
X1306Y1383D01*
X1217Y1382D02*
X1306Y1382D01*
X1217Y1381D02*
X1306Y1381D01*
X1217Y1380D02*
X1306Y1380D01*
X1217Y1379D02*
X1306Y1379D01*
X1217Y1378D02*
X1306Y1378D01*
X1217Y1377D02*
X1306Y1377D01*
X1217Y1376D02*
X1306Y1376D01*
X1217Y1375D02*
X1306Y1375D01*
X1217Y1374D02*
X1306Y1374D01*
X1217Y1373D02*
X1306Y1373D01*
X1217Y1372D02*
X1306Y1372D01*
X1217Y1371D02*
X1306Y1371D01*
X1217Y1370D02*
X1306Y1370D01*
X1217Y1369D02*
X1306Y1369D01*
X1217Y1368D02*
X1306Y1368D01*
X1217Y1367D02*
X1306Y1367D01*
X1217Y1366D02*
X1306Y1366D01*
X1217Y1365D02*
X1306Y1365D01*
X1217Y1364D02*
X1306Y1364D01*
X676Y1250D02*
X750Y1250D01*
X676Y1249D02*
X750Y1249D01*
X676Y1248D02*
X750Y1248D01*
X676Y1247D02*
X750Y1247D01*
X676Y1246D02*
X750Y1246D01*
X676Y1245D02*
X750Y1245D01*
X676Y1244D02*
X750Y1244D01*
X676Y1243D02*
X750Y1243D01*
X676Y1242D02*
X750Y1242D01*
X676Y1241D02*
X750Y1241D01*
X676Y1240D02*
X750Y1240D01*
X676Y1239D02*
X750Y1239D01*
X676Y1238D02*
X750Y1238D01*
X676Y1237D02*
X750Y1237D01*
X676Y1236D02*
X750Y1236D01*
X676Y1235D02*
X750Y1235D01*
X676Y1234D02*
X750Y1234D01*
X676Y1233D02*
X750Y1233D01*
X676Y1232D02*
X750Y1232D01*
X676Y1231D02*
X750Y1231D01*
X676Y1230D02*
X750Y1230D01*
X676Y1229D02*
X750Y1229D01*
X676Y1228D02*
X750Y1228D01*
X676Y1227D02*
X750Y1227D01*
X676Y1226D02*
X750Y1226D01*
X676Y1225D02*
X750Y1225D01*
X676Y1224D02*
X750Y1224D01*
X676Y1223D02*
X750Y1223D01*
X676Y1222D02*
X750Y1222D01*
X676Y1221D02*
X709Y1221D01*
X716Y1221D02*
X750Y1221D01*
X676Y1220D02*
X707Y1220D01*
X718Y1220D02*
X750Y1220D01*
X676Y1219D02*
X706Y1219D01*
X719Y1219D02*
X750Y1219D01*
X676Y1218D02*
X705Y1218D01*
X720Y1218D02*
X750Y1218D01*
X676Y1217D02*
X705Y1217D01*
X721Y1217D02*
X750Y1217D01*
X676Y1216D02*
X704Y1216D01*
X721Y1216D02*
X750Y1216D01*
X676Y1215D02*
X704Y1215D01*
X722Y1215D02*
X750Y1215D01*
X676Y1214D02*
X704Y1214D01*
X722Y1214D02*
X750Y1214D01*
X676Y1213D02*
X704Y1213D01*
X722Y1213D02*
X750Y1213D01*
X676Y1212D02*
X704Y1212D01*
X722Y1212D02*
X750Y1212D01*
X676Y1211D02*
X704Y1211D01*
X722Y1211D02*
X750Y1211D01*
X676Y1210D02*
X704Y1210D01*
X722Y1210D02*
X750Y1210D01*
X676Y1209D02*
X704Y1209D01*
X721Y1209D02*
X750Y1209D01*
X676Y1208D02*
X705Y1208D01*
X721Y1208D02*
X750Y1208D01*
X676Y1207D02*
X706Y1207D01*
X720Y1207D02*
X750Y1207D01*
X676Y1206D02*
X707Y1206D01*
X719Y1206D02*
X750Y1206D01*
X676Y1205D02*
X708Y1205D01*
X718Y1205D02*
X750Y1205D01*
X676Y1204D02*
X711Y1204D01*
X714Y1204D02*
X750Y1204D01*
X676Y1203D02*
X750Y1203D01*
X676Y1202D02*
X750Y1202D01*
X676Y1201D02*
X750Y1201D01*
X676Y1200D02*
X750Y1200D01*
X676Y1199D02*
X750Y1199D01*
X676Y1198D02*
X750Y1198D01*
X676Y1197D02*
X750Y1197D01*
X676Y1196D02*
X750Y1196D01*
X676Y1195D02*
X750Y1195D01*
X676Y1194D02*
X750Y1194D01*
X676Y1193D02*
X750Y1193D01*
X676Y1192D02*
X750Y1192D01*
X676Y1191D02*
X750Y1191D01*
X676Y1190D02*
X750Y1190D01*
X676Y1189D02*
X750Y1189D01*
X676Y1188D02*
X750Y1188D01*
X676Y1187D02*
X750Y1187D01*
X676Y1186D02*
X750Y1186D01*
X676Y1185D02*
X750Y1185D01*
X676Y1184D02*
X750Y1184D01*
X676Y1183D02*
X750Y1183D01*
X676Y1182D02*
X750Y1182D01*
X676Y1181D02*
X750Y1181D01*
X676Y1180D02*
X750Y1180D01*
X676Y1179D02*
X750Y1179D01*
X676Y1178D02*
X750Y1178D01*
X676Y1177D02*
X750Y1177D01*
X676Y1176D02*
X750Y1176D01*
X1201Y610D02*
X1290Y610D01*
X1201Y609D02*
X1290Y609D01*
X1201Y608D02*
X1290Y608D01*
X1201Y607D02*
X1290Y607D01*
X1201Y606D02*
X1290Y606D01*
X1201Y605D02*
X1290Y605D01*
X1201Y604D02*
X1290Y604D01*
X1201Y603D02*
X1290Y603D01*
X1201Y602D02*
X1290Y602D01*
X1201Y601D02*
X1290Y601D01*
X1201Y600D02*
X1290Y600D01*
X1201Y599D02*
X1290Y599D01*
X1201Y598D02*
X1290Y598D01*
X1201Y597D02*
X1290Y597D01*
X1201Y596D02*
X1290Y596D01*
X1201Y595D02*
X1290Y595D01*
X1201Y594D02*
X1290Y594D01*
X1201Y593D02*
X1290Y593D01*
X1201Y592D02*
X1290Y592D01*
X1201Y591D02*
X1290Y591D01*
X1201Y590D02*
X1290Y590D01*
X1201Y589D02*
X1290Y589D01*
X1201Y588D02*
X1290Y588D01*
X1201Y587D02*
X1290Y587D01*
X1201Y586D02*
X1290Y586D01*
X1201Y585D02*
X1290Y585D01*
X1201Y584D02*
X1242Y584D01*
X1249Y584D02*
X1290Y584D01*
X1201Y583D02*
X1238Y583D01*
X1253Y583D02*
X1290Y583D01*
X1201Y582D02*
X1236Y582D01*
X1256Y582D02*
X1290Y582D01*
X1201Y581D02*
X1235Y581D01*
X1257Y581D02*
X1290Y581D01*
X1201Y580D02*
X1233Y580D01*
X1258Y580D02*
X1290Y580D01*
X1201Y579D02*
X1232Y579D01*
X1259Y579D02*
X1290Y579D01*
X1201Y578D02*
X1231Y578D01*
X1260Y578D02*
X1290Y578D01*
X1201Y577D02*
X1231Y577D01*
X1261Y577D02*
X1290Y577D01*
X1201Y576D02*
X1230Y576D01*
X1262Y576D02*
X1290Y576D01*
X1201Y575D02*
X1229Y575D01*
X1262Y575D02*
X1290Y575D01*
X1201Y574D02*
X1229Y574D01*
X1263Y574D02*
X1290Y574D01*
X1201Y573D02*
X1228Y573D01*
X1264Y573D02*
X1290Y573D01*
X1201Y572D02*
X1228Y572D01*
X1264Y572D02*
X1290Y572D01*
X1201Y571D02*
X1228Y571D01*
X1264Y571D02*
X1290Y571D01*
X1201Y570D02*
X1227Y570D01*
X1265Y570D02*
X1290Y570D01*
X1201Y569D02*
X1227Y569D01*
X1265Y569D02*
X1290Y569D01*
X1201Y568D02*
X1227Y568D01*
X1265Y568D02*
X1290Y568D01*
X1201Y567D02*
X1227Y567D01*
X1265Y567D02*
X1290Y567D01*
X1201Y566D02*
X1227Y566D01*
X1265Y566D02*
X1290Y566D01*
X1201Y565D02*
X1227Y565D01*
X1265Y565D02*
X1290Y565D01*
X1201Y564D02*
X1227Y564D01*
X1265Y564D02*
X1290Y564D01*
X1201Y563D02*
X1227Y563D01*
X1265Y563D02*
X1290Y563D01*
X1201Y562D02*
X1227Y562D01*
X1265Y562D02*
X1290Y562D01*
X1201Y561D02*
X1227Y561D01*
X1265Y561D02*
X1290Y561D01*
X1201Y560D02*
X1228Y560D01*
X1264Y560D02*
X1290Y560D01*
X1201Y559D02*
X1228Y559D01*
X1264Y559D02*
X1290Y559D01*
X1201Y558D02*
X1228Y558D01*
X1263Y558D02*
X1290Y558D01*
X1201Y557D02*
X1229Y557D01*
X1263Y557D02*
X1290Y557D01*
X1201Y556D02*
X1229Y556D01*
X1262Y556D02*
X1290Y556D01*
X1201Y555D02*
X1230Y555D01*
X1262Y555D02*
X1290Y555D01*
X1201Y554D02*
X1231Y554D01*
X1261Y554D02*
X1290Y554D01*
X1201Y553D02*
X1232Y553D01*
X1260Y553D02*
X1290Y553D01*
X1201Y552D02*
X1233Y552D01*
X1259Y552D02*
X1290Y552D01*
X1201Y551D02*
X1234Y551D01*
X1258Y551D02*
X1290Y551D01*
X1201Y550D02*
X1235Y550D01*
X1257Y550D02*
X1290Y550D01*
X1201Y549D02*
X1237Y549D01*
X1255Y549D02*
X1290Y549D01*
X1201Y548D02*
X1239Y548D01*
X1253Y548D02*
X1290Y548D01*
X1201Y547D02*
X1290Y547D01*
X1201Y546D02*
X1290Y546D01*
X1201Y545D02*
X1290Y545D01*
X1201Y544D02*
X1290Y544D01*
X1201Y543D02*
X1290Y543D01*
X1201Y542D02*
X1290Y542D01*
X1201Y541D02*
X1290Y541D01*
X1201Y540D02*
X1290Y540D01*
X1201Y539D02*
X1290Y539D01*
X1201Y538D02*
X1290Y538D01*
X1201Y537D02*
X1290Y537D01*
X1201Y536D02*
X1290Y536D01*
X1201Y535D02*
X1290Y535D01*
X1201Y534D02*
X1290Y534D01*
X1201Y533D02*
X1290Y533D01*
X1201Y532D02*
X1290Y532D01*
X1201Y531D02*
X1290Y531D01*
X1201Y530D02*
X1290Y530D01*
X1201Y529D02*
X1290Y529D01*
X1201Y528D02*
X1290Y528D01*
X1201Y527D02*
X1290Y527D01*
X1201Y526D02*
X1290Y526D01*
X1201Y525D02*
X1290Y525D01*
X1201Y524D02*
X1290Y524D01*
X1201Y523D02*
X1290Y523D01*
X1201Y522D02*
X1290Y522D01*
X1201Y521D02*
X1290Y521D01*
D02*
G04 End of Mask0*
M02*